<svg width="1168" height="160" viewBox="0 0 1168 160" fill="none" xmlns="http://www.w3.org/2000/svg">
<g clip-path="url(#clip0_213_4897)">
<rect width="1168" height="160" rx="12" fill="#80E3FF"/>
<path d="M881.158 131.236C941.626 166.463 996.819 227.918 996.819 329.989" stroke="#2291F7" stroke-width="33" stroke-linecap="round" stroke-linejoin="round"/>
<path d="M1084.76 -24.7141C1086.24 -13.6379 1085.47 11.4806 1070.56 23.3454" stroke="#9B93FF" stroke-width="33" stroke-linecap="round" stroke-linejoin="round"/>
<path d="M1021.23 70.4578C968.789 77.73 864.313 78.7169 841.691 95.3981C807.086 120.916 842.492 147.336 891.09 214.396C938.317 279.562 939.714 300.251 953.938 381.124" stroke="#9B93FF" stroke-width="33" stroke-linecap="round" stroke-linejoin="round"/>
<path d="M836.567 -122.014C864.561 -137.591 938.391 -162.629 1009.76 -138.172C1098.97 -107.599 1167.14 -42.8973 1125.11 31.2623C1091.37 90.787 1016.96 103.72 1008.93 106.956" stroke="#218FF7" stroke-width="33" stroke-linecap="round" stroke-linejoin="round"/>
<path d="M-197.968 -122.014C-169.974 -137.591 -96.1443 -162.629 -24.7765 -138.172C64.4333 -107.599 132.608 -42.8973 90.576 31.2623C56.8385 90.787 -17.5705 103.72 -25.6054 106.956" stroke="white" stroke-width="33" stroke-linecap="round" stroke-linejoin="round"/>
<path d="M916.909 -21.3076C833.622 -7.0804 653.213 12.3996 532.599 -119.866C411.986 -252.131 325.78 -263.501 297.753 -252.652" stroke="#2291F7" stroke-width="33" stroke-linecap="round" stroke-linejoin="round"/>
<path d="M536.158 -186.528C572.229 -149.276 665.054 -73.6396 747.781 -69.1141C851.19 -63.4573 1039.05 -109.791 1039.05 -29.0201C1039.05 39.025 818.928 33.9981 779.463 53.207C731.415 76.5925 741.414 111.454 799.946 180.084C874.988 268.071 886.537 301.725 900.924 370.61" stroke="#3AB8FF" stroke-width="33" stroke-linecap="round" stroke-linejoin="round"/>
<path d="M719.713 26.8259C694.934 39.8749 660.704 92.7012 695.728 137.633C739.508 193.798 868.626 281.443 822.299 465.156" stroke="#218FF7" stroke-width="33" stroke-linecap="round" stroke-linejoin="round"/>
<path d="M141.521 68.7117C194.697 68.7113 236.802 95.4209 251.045 106.954C359.854 195.062 374.964 387.733 196.196 479.281" stroke="#0259AC" stroke-width="33" stroke-linecap="round" stroke-linejoin="round"/>
<path d="M520.776 399.73C483.223 437.295 398.96 487.415 367.82 405.271C337.177 324.436 480.481 275.335 334.302 131.034" stroke="#3AB8FF" stroke-width="33" stroke-linecap="round" stroke-linejoin="round"/>
<path d="M1550.2 397.806C1520.91 427.958 1403.23 519.384 1392.36 424.94C1382.49 339.225 1515.02 275.33 1368.84 131.028M1176.05 68.7076C1229.23 68.7072 1271.34 95.4169 1285.58 106.95C1394.39 195.058 1399.85 410.805 1192 497.012" stroke="#218FF7" stroke-width="33" stroke-linecap="round" stroke-linejoin="round"/>
<path d="M-24.6771 183.488C4.91069 135.351 44.7745 125.553 101.731 116.182C172.926 104.469 365.516 188.057 220.017 386C204.111 404.932 188.839 421.553 117.405 455.685" stroke="#218FF7" stroke-width="33" stroke-linecap="round" stroke-linejoin="round"/>
<path d="M6.86365 318.238C-4.68052 284.525 0.459953 214.048 57.0571 186.917C127.804 153.002 209.001 198.452 199.452 291.962C191.813 366.77 145.689 386.515 86.1827 411.23C24.7532 436.744 -35.0655 544.371 86.1829 649.629" stroke="#3AB8FF" stroke-width="33" stroke-linecap="round" stroke-linejoin="round"/>
<path d="M1041.4 318.238C1029.86 284.525 1035 214.048 1091.59 186.917C1162.34 153.002 1243.54 198.452 1233.99 291.962C1226.35 366.77 1168.69 368.711 1120.72 411.23C1085.17 442.737 1046.48 462.663 1057.91 541.859" stroke="#3AB8FF" stroke-width="33" stroke-linecap="round" stroke-linejoin="round"/>
<path d="M299.118 -91.0936C304.645 -67.2706 332.655 -9.27179 400.479 32.1403C468.304 73.5524 480.448 121.673 478.042 140.556" stroke="#218FF7" stroke-width="33" stroke-linecap="round" stroke-linejoin="round"/>
<path d="M224.469 -113.748C224.525 -79.63 244.872 3.88 325.812 64.9776C426.987 141.35 503.039 200.011 438.639 351.694" stroke="#3AB8FF" stroke-width="33" stroke-linecap="round" stroke-linejoin="round"/>
<path d="M306.491 -205.386C388.147 -178.374 520.256 -126.251 565.71 10.7145C611.165 147.679 538.217 279.335 496.061 328.042" stroke="#9B93FF" stroke-width="33" stroke-linecap="round" stroke-linejoin="round"/>
<path d="M494.862 41.7239C503.187 45.5461 523.055 71.8099 526.594 90.9488" stroke="#3AB8FF" stroke-width="33" stroke-linecap="round" stroke-linejoin="round"/>
<path d="M1100.63 120.773C1097.81 130.529 1050.82 181.669 1000.49 156.429" stroke="#218FF7" stroke-width="33" stroke-linecap="round" stroke-linejoin="round"/>
<path d="M379.289 -75.4234C388.404 -54.8003 394.1 -29.9007 463.828 12.4424" stroke="#3AB8FF" stroke-width="33" stroke-linecap="round" stroke-linejoin="round"/>
<path d="M612.27 -6.15582C629.525 23.3926 654.175 106.312 614.741 201.6C575.308 296.888 620.797 336.845 653.507 346.859C615.365 339.928 543.266 337.926 560.011 385.361" stroke="#218FF7" stroke-width="33" stroke-linecap="round" stroke-linejoin="round"/>
<path d="M670.863 180.796C682.16 218.513 752.819 240.676 752.819 274.784C752.819 313.408 665.609 237.933 660.228 274.784C653.504 320.838 811.167 365.716 769.268 399.272C743.427 419.967 686.143 363.384 666.293 406.496C653.414 434.467 694.265 495.141 756.595 516.439" stroke="#9B93FF" stroke-width="33" stroke-linecap="round" stroke-linejoin="round"/>
<path d="M489.792 -22.7365C457.968 -62.449 440.034 -88.438 348.423 -136.397C265.099 -180.017 174.756 -178.849 160.655 -129.331C146.553 -79.8133 171.724 -67.3258 182.328 -45.3566C192.932 -23.3874 196.901 11.3783 153.413 24.3849" stroke="#218FF7" stroke-width="33" stroke-linecap="round" stroke-linejoin="round"/>
<g filter="url(#filter0_d_213_4897)">
<path d="M439.565 100V64.24H446.093V94.24H461.405V100H439.565ZM477.484 100.576C474.796 100.576 472.444 99.968 470.428 98.752C468.412 97.536 466.844 95.888 465.724 93.808C464.604 91.728 464.044 89.424 464.044 86.896C464.044 84.272 464.604 81.952 465.724 79.936C466.876 77.888 468.428 76.272 470.38 75.088C472.364 73.904 474.572 73.312 477.004 73.312C479.052 73.312 480.844 73.648 482.38 74.32C483.948 74.992 485.276 75.92 486.364 77.104C487.452 78.288 488.284 79.648 488.86 81.184C489.436 82.688 489.724 84.32 489.724 86.08C489.724 86.528 489.692 86.992 489.628 87.472C489.596 87.952 489.516 88.368 489.388 88.72H469.228V83.92H485.836L482.86 86.176C483.148 84.704 483.068 83.392 482.62 82.24C482.204 81.088 481.5 80.176 480.508 79.504C479.548 78.832 478.38 78.496 477.004 78.496C475.692 78.496 474.524 78.832 473.5 79.504C472.476 80.144 471.692 81.104 471.148 82.384C470.636 83.632 470.444 85.152 470.572 86.944C470.444 88.544 470.652 89.968 471.196 91.216C471.772 92.432 472.604 93.376 473.692 94.048C474.812 94.72 476.092 95.056 477.532 95.056C478.972 95.056 480.188 94.752 481.18 94.144C482.204 93.536 483.004 92.72 483.58 91.696L488.668 94.192C488.156 95.44 487.356 96.544 486.268 97.504C485.18 98.464 483.884 99.216 482.38 99.76C480.908 100.304 479.276 100.576 477.484 100.576ZM506.395 100.288C503.451 100.288 501.163 99.488 499.531 97.888C497.931 96.256 497.131 93.968 497.131 91.024V79.504H492.619V73.888H493.099C494.379 73.888 495.371 73.552 496.075 72.88C496.779 72.208 497.131 71.232 497.131 69.952V67.936H503.419V73.888H509.419V79.504H503.419V90.688C503.419 91.552 503.563 92.288 503.851 92.896C504.171 93.504 504.651 93.968 505.291 94.288C505.963 94.608 506.811 94.768 507.835 94.768C508.059 94.768 508.315 94.752 508.603 94.72C508.923 94.688 509.227 94.656 509.515 94.624V100C509.067 100.064 508.555 100.128 507.979 100.192C507.403 100.256 506.875 100.288 506.395 100.288ZM516.335 77.968V74.848C517.391 74.592 518.239 74.128 518.879 73.456C519.551 72.752 519.967 71.92 520.127 70.96H517.295V64.24H523.631V68.368C523.631 70.96 523.007 73.088 521.759 74.752C520.543 76.384 518.735 77.456 516.335 77.968ZM541.411 100.576C538.627 100.576 536.195 99.92 534.115 98.608C532.067 97.264 530.659 95.456 529.891 93.184L534.595 90.928C535.267 92.4 536.195 93.552 537.379 94.384C538.595 95.216 539.939 95.632 541.411 95.632C542.563 95.632 543.475 95.376 544.147 94.864C544.819 94.352 545.155 93.68 545.155 92.848C545.155 92.336 545.011 91.92 544.723 91.6C544.467 91.248 544.099 90.96 543.619 90.736C543.171 90.48 542.675 90.272 542.131 90.112L537.859 88.912C535.651 88.272 533.971 87.296 532.819 85.984C531.699 84.672 531.139 83.12 531.139 81.328C531.139 79.728 531.539 78.336 532.339 77.152C533.171 75.936 534.307 74.992 535.747 74.32C537.219 73.648 538.899 73.312 540.787 73.312C543.251 73.312 545.427 73.904 547.315 75.088C549.203 76.272 550.547 77.936 551.347 80.08L546.547 82.336C546.099 81.152 545.347 80.208 544.291 79.504C543.235 78.8 542.051 78.448 540.739 78.448C539.683 78.448 538.851 78.688 538.243 79.168C537.635 79.648 537.331 80.272 537.331 81.04C537.331 81.52 537.459 81.936 537.715 82.288C537.971 82.64 538.323 82.928 538.771 83.152C539.251 83.376 539.795 83.584 540.403 83.776L544.579 85.024C546.723 85.664 548.371 86.624 549.523 87.904C550.707 89.184 551.299 90.752 551.299 92.608C551.299 94.176 550.883 95.568 550.051 96.784C549.219 97.968 548.067 98.896 546.595 99.568C545.123 100.24 543.395 100.576 541.411 100.576ZM563.606 100V94H565.67C567.206 94 568.422 93.568 569.318 92.704C570.246 91.808 570.71 90.624 570.71 89.152V64.24H577.286V88.912C577.286 91.12 576.806 93.056 575.846 94.72C574.918 96.384 573.574 97.68 571.814 98.608C570.086 99.536 568.038 100 565.67 100H563.606ZM596.274 100.576C593.714 100.576 591.378 99.984 589.266 98.8C587.186 97.616 585.522 96 584.274 93.952C583.058 91.904 582.45 89.568 582.45 86.944C582.45 84.32 583.058 81.984 584.274 79.936C585.522 77.888 587.186 76.272 589.266 75.088C591.346 73.904 593.682 73.312 596.274 73.312C598.834 73.312 601.154 73.904 603.234 75.088C605.314 76.272 606.962 77.888 608.178 79.936C609.426 81.952 610.05 84.288 610.05 86.944C610.05 89.568 609.426 91.904 608.178 93.952C606.93 96 605.266 97.616 603.186 98.8C601.106 99.984 598.802 100.576 596.274 100.576ZM596.274 94.816C597.682 94.816 598.914 94.48 599.97 93.808C601.058 93.136 601.906 92.208 602.514 91.024C603.154 89.808 603.474 88.448 603.474 86.944C603.474 85.408 603.154 84.064 602.514 82.912C601.906 81.728 601.058 80.8 599.97 80.128C598.914 79.424 597.682 79.072 596.274 79.072C594.834 79.072 593.57 79.424 592.482 80.128C591.394 80.8 590.53 81.728 589.89 82.912C589.282 84.064 588.978 85.408 588.978 86.944C588.978 88.448 589.282 89.808 589.89 91.024C590.53 92.208 591.394 93.136 592.482 93.808C593.57 94.48 594.834 94.816 596.274 94.816ZM614.819 100V73.888H621.107V100H614.819ZM614.819 70.96V64.24H621.107V70.96H614.819ZM626.912 100V73.888H632.816V79.024L632.336 78.112C632.944 76.544 633.936 75.36 635.312 74.56C636.72 73.728 638.352 73.312 640.208 73.312C642.128 73.312 643.824 73.728 645.296 74.56C646.8 75.392 647.968 76.56 648.8 78.064C649.632 79.536 650.048 81.248 650.048 83.2V100H643.76V84.688C643.76 83.536 643.536 82.544 643.088 81.712C642.64 80.88 642.016 80.24 641.216 79.792C640.448 79.312 639.536 79.072 638.48 79.072C637.456 79.072 636.544 79.312 635.744 79.792C634.944 80.24 634.32 80.88 633.872 81.712C633.424 82.544 633.2 83.536 633.2 84.688V100H626.912ZM673.209 100.576C671.193 100.576 669.433 100.128 667.929 99.232C666.457 98.336 665.321 97.088 664.521 95.488C663.753 93.888 663.369 92.016 663.369 89.872V73.888H669.657V89.344C669.657 90.432 669.865 91.392 670.281 92.224C670.729 93.024 671.353 93.664 672.153 94.144C672.985 94.592 673.913 94.816 674.937 94.816C675.961 94.816 676.873 94.592 677.673 94.144C678.473 93.664 679.097 93.008 679.545 92.176C679.993 91.344 680.217 90.352 680.217 89.2V73.888H686.505V100H680.553V94.864L681.081 95.776C680.473 97.376 679.465 98.576 678.057 99.376C676.681 100.176 675.065 100.576 673.209 100.576ZM702.286 100.576C699.502 100.576 697.07 99.92 694.99 98.608C692.942 97.264 691.534 95.456 690.766 93.184L695.47 90.928C696.142 92.4 697.07 93.552 698.254 94.384C699.47 95.216 700.814 95.632 702.286 95.632C703.438 95.632 704.35 95.376 705.022 94.864C705.694 94.352 706.03 93.68 706.03 92.848C706.03 92.336 705.886 91.92 705.598 91.6C705.342 91.248 704.974 90.96 704.494 90.736C704.046 90.48 703.55 90.272 703.006 90.112L698.734 88.912C696.526 88.272 694.846 87.296 693.694 85.984C692.574 84.672 692.014 83.12 692.014 81.328C692.014 79.728 692.414 78.336 693.214 77.152C694.046 75.936 695.182 74.992 696.622 74.32C698.094 73.648 699.774 73.312 701.662 73.312C704.126 73.312 706.302 73.904 708.19 75.088C710.078 76.272 711.422 77.936 712.222 80.08L707.422 82.336C706.974 81.152 706.222 80.208 705.166 79.504C704.11 78.8 702.926 78.448 701.614 78.448C700.558 78.448 699.726 78.688 699.118 79.168C698.51 79.648 698.206 80.272 698.206 81.04C698.206 81.52 698.334 81.936 698.59 82.288C698.846 82.64 699.198 82.928 699.646 83.152C700.126 83.376 700.67 83.584 701.278 83.776L705.454 85.024C707.598 85.664 709.246 86.624 710.398 87.904C711.582 89.184 712.174 90.752 712.174 92.608C712.174 94.176 711.758 95.568 710.926 96.784C710.094 97.968 708.942 98.896 707.47 99.568C705.998 100.24 704.27 100.576 702.286 100.576ZM720.222 89.152L719.79 64.24H726.174L725.742 89.152H720.222ZM719.79 100V93.28H726.174V100H719.79Z" fill="white"/>
</g>
</g>
<defs>
<filter id="filter0_d_213_4897" x="435.564" y="64.24" width="294.609" height="44.3359" filterUnits="userSpaceOnUse" color-interpolation-filters="sRGB">
<feFlood flood-opacity="0" result="BackgroundImageFix"/>
<feColorMatrix in="SourceAlpha" type="matrix" values="0 0 0 0 0 0 0 0 0 0 0 0 0 0 0 0 0 0 127 0" result="hardAlpha"/>
<feOffset dy="4"/>
<feGaussianBlur stdDeviation="2"/>
<feComposite in2="hardAlpha" operator="out"/>
<feColorMatrix type="matrix" values="0 0 0 0 0 0 0 0 0 0 0 0 0 0 0 0 0 0 0.25 0"/>
<feBlend mode="normal" in2="BackgroundImageFix" result="effect1_dropShadow_213_4897"/>
<feBlend mode="normal" in="SourceGraphic" in2="effect1_dropShadow_213_4897" result="shape"/>
</filter>
<clipPath id="clip0_213_4897">
<rect width="1168" height="160" rx="12" fill="white"/>
</clipPath>
</defs>
</svg>
