<?xml version="1.0" encoding="UTF-8" standalone="no"?>
<svg
   viewBox="0 0 512 470"
   version="1.1"
   id="svg6"
   sodipodi:docname="kali-linux.svg"
   width="512"
   height="470"
   inkscape:version="1.3.2 (091e20e, 2023-11-25, custom)"
   xmlns:inkscape="http://www.inkscape.org/namespaces/inkscape"
   xmlns:sodipodi="http://sodipodi.sourceforge.net/DTD/sodipodi-0.dtd"
   xmlns="http://www.w3.org/2000/svg"
   xmlns:svg="http://www.w3.org/2000/svg">
  <defs
     id="defs6" />
  <sodipodi:namedview
     id="namedview6"
     pagecolor="#ffffff"
     bordercolor="#000000"
     borderopacity="0.25"
     inkscape:showpageshadow="2"
     inkscape:pageopacity="0.0"
     inkscape:pagecheckerboard="0"
     inkscape:deskcolor="#d1d1d1"
     inkscape:zoom="0.53613281"
     inkscape:cx="484.02186"
     inkscape:cy="338.53552"
     inkscape:window-width="1366"
     inkscape:window-height="745"
     inkscape:window-x="-8"
     inkscape:window-y="-8"
     inkscape:window-maximized="1"
     inkscape:current-layer="svg6" />
  <linearGradient
     id="a"
     gradientUnits="userSpaceOnUse"
     x1="194.59435"
     x2="313.27072"
     y1="356.76059"
     y2="238.0842">
    <stop
       offset="0"
       stop-color="#249eff"
       id="stop1" />
    <stop
       offset="1"
       stop-color="#2777ff"
       id="stop2" />
  </linearGradient>
  <g
     stroke-width="0.80766"
     transform="matrix(1.0718494,0,0,1.0718494,-6.2626156,-43.358707)"
     id="g3">
    <circle
       cx="270.54001"
       cy="258.41"
       fill="url(#a)"
       r="181.72"
       id="circle2"
       style="fill:url(#a)" />
    <path
       d="M 452.08,253.39 A 181.72,181.72 0 0 1 270.54,431.56 181.72,181.72 0 0 1 89,254.85 a 181.72,181.72 0 0 0 -0.17734,3.555 181.72,181.72 0 0 0 181.72,181.72 181.72,181.72 0 0 0 181.72,-181.72 181.72,181.72 0 0 0 -0.17733,-5.0189 z"
       opacity="0.3"
       id="path2" />
    <path
       d="m 270.54,76.691 a 181.72,181.72 0 0 0 -181.72,181.72 181.72,181.72 0 0 0 0.17734,5.0105 181.72,181.72 0 0 1 181.54,-178.16 181.72,181.72 0 0 1 181.54,176.7 181.72,181.72 0 0 0 0.17733,-3.5467 181.72,181.72 0 0 0 -181.72,-181.72 z"
       fill="#ffffff"
       opacity="0.1"
       id="path3" />
  </g>
  <path
     d="m 86.433061,100.94394 c -31.535952,0.036 -52.367344,2.5748 -52.539912,2.59591 -7.08e-4,9e-5 -0.119318,0.0107 -0.119318,0.0107 -2.058809,0.23683 -1.797063,3.30387 0.272142,3.18832 0,0 114.666447,-5.41734 206.577527,31.52309 3.27933,14.02944 11.93933,35.53395 17.05527,46.96416 -6.96455,4.77991 -14.43567,9.63196 -20.58272,17.3318 -6.45232,8.08249 -11.32838,19.23648 -12.62746,36.29175 -2.63386,34.59608 27.0374,64.88225 63.73538,65.81584 34.03014,1.81174 57.16708,2.06159 85.33314,16.65975 13.15374,7.28172 25.40498,22.25052 34.55428,40.5352 9.15477,18.29432 15.22884,39.87816 16.31891,60.23257 0.10215,2.00029 3.04266,2.03684 3.19465,0.0398 0.005,-0.0619 -0.002,-0.14709 0.002,-0.20934 1.18182,-15.58576 -1.11987,-39.71095 -10.46307,-62.66139 -7.8259,-19.22362 -20.75529,-37.52544 -40.63381,-49.00388 28.57014,7.80188 44.92549,22.30197 54.32775,35.5511 10.78817,15.20204 12.38094,28.73199 12.37236,28.65696 0.22705,1.91283 3.01758,1.86867 3.18414,-0.0503 0,0 1.41817,-16.58473 -10.02554,-34.85762 -11.44413,-18.27289 -35.7376,-38.2468 -86.38463,-45.679 -12.82896,-1.88228 -29.01925,-3.32895 -45.42604,-3.37043 -0.009,-7e-5 -0.0167,-7e-5 -0.0251,0 -39.70345,0.52495 -59.71916,-22.10475 -62.83503,-45.31672 -1.55815,-11.60599 1.16692,-23.36203 7.90907,-32.47168 6.74225,-9.10943 17.47222,-15.63185 32.25623,-16.7873 h 0.006 c 24.27417,-2.00297 53.88079,11.12472 82.99543,24.67183 -0.0289,3.36421 0.26917,6.75779 2.72775,9.83089 1.64626,2.05774 4.61625,3.48758 7.63907,4.91539 3.02208,1.42749 6.1327,2.72122 7.36683,3.42907 2.80567,1.61045 12.16441,7.61356 17.68122,14.79473 0.70814,0.92311 2.1333,0.80629 2.68177,-0.21981 0.0286,-0.0536 0.86733,-1.02083 1.97413,-1.94691 1.10679,-0.92609 2.51124,-1.98164 3.87913,-2.96645 2.73579,-1.96952 5.32581,-3.65726 5.32581,-3.65726 1.34817,-0.87868 0.70243,-2.97395 -0.90647,-2.94126 0,0 -0.39313,0.0222 -1.64968,-0.21772 -1.25653,-0.23994 -3.25424,-0.7445 -6.09614,-1.80661 -2.61542,-0.97737 -5.73976,-3.09389 -8.14981,-5.00757 -1.20508,-0.95683 -2.2422,-1.86148 -2.97481,-2.53932 -0.0876,-0.081 -0.12442,-0.12048 -0.20306,-0.19469 0.76577,-0.689 0.87064,-1.79031 0.71596,-2.48283 -0.15812,-0.70773 -0.46647,-1.2814 -0.81227,-1.84015 -0.691,-1.11655 -1.56961,-2.11197 -2.17714,-2.71939 l -0.002,-0.002 c 0.088,0.0878 -0.17982,-0.22497 -0.45009,-0.61966 -0.27132,-0.3962 -0.62042,-0.93142 -1.01324,-1.54915 -0.78564,-1.23552 -1.74894,-2.80653 -2.68584,-4.35438 -1.87392,-3.09572 -3.56487,-5.9731 -3.72843,-6.24685 -0.002,-0.004 -0.40708,-0.85673 -1.19329,-1.38172 -0.12369,-0.0824 -0.25827,-0.14728 -0.39985,-0.1926 -0.88752,-0.2854 -1.59106,-0.21854 -2.5017,-0.17166 -0.91059,0.0468 -1.92108,0.15403 -2.87856,0.27634 -1.60166,0.2046 -2.59559,0.38507 -3.02926,0.46056 -1.08289,-0.57116 -9.54718,-5.25978 -12.65747,-14.81296 -0.57377,-1.75226 -3.16731,-1.30519 -3.12133,0.53803 0.0169,0.62769 -0.93258,2.49805 -0.72644,5.32784 -3.76069,-2.266 -6.99596,-5.86645 -9.81406,-13.28343 -0.51743,-1.36768 -2.44682,-1.38258 -2.98532,-0.023 -1.07924,2.71403 -1.14441,4.98485 -0.92532,6.74515 -3.57215,-1.67969 -9.42102,-5.37564 -10.69544,-12.72178 -0.27336,-1.57176 -2.42624,-1.82 -3.05017,-0.35169 -1.05053,2.47672 -1.14377,4.52652 -0.96718,6.17782 -6.65693,-2.8552 -24.99124,-9.53196 -52.35341,-9.68009 -5.281,-0.48501 -9.47804,-3.12766 -12.92543,-7.0905 -3.44739,-3.96338 -6.0656,-9.24609 -7.91958,-14.71649 -1.85397,-5.47093 -2.94983,-11.1258 -3.44578,-15.79049 -0.49596,-4.66511 -0.28736,-8.52195 0.0586,-9.62777 0.23104,-0.73722 -0.0974,-1.53425 -0.78086,-1.89461 0,0 -33.45992,-17.60191 -98.87167,-25.33959 -24.52606,-2.90117 -47.38754,-3.7878 -66.388211,-3.76615 z m 76.388559,34.85761 c -9.96691,0.0751 -20.66525,0.4466 -31.90681,1.2456 -60.051433,4.26843 -120.508024,25.24956 -120.508024,25.24956 -1.9339378,0.66746 -1.0685266,3.56668 0.914845,3.06484 0,0 123.305549,-30.94751 226.310279,-12.80753 0.0912,0.0164 0.18367,0.0248 0.27633,0.0251 h 0.004 c 1.07806,-4.3e-4 1.84744,-1.04489 1.52824,-2.07467 l -2.69216,-8.68787 c -0.1771,-0.5728 -0.65946,-0.99859 -1.24978,-1.10326 0,0 -29.49193,-5.23544 -72.6746,-4.91121 -0.004,-2e-5 -0.009,-2e-5 -0.0125,0 z m 73.21911,18.50441 c -10.59866,-0.0448 -43.21161,1.29051 -92.1962,16.61795 -61.47485,19.23541 -96.464301,46.58151 -96.464301,46.58151 -1.541748,1.21922 0.04634,3.60709 1.766837,2.65657 0,0 91.024664,-50.766 193.533124,-53.64713 1.07084,-0.0309 1.80971,-1.0846 1.47379,-2.10179 l -2.94544,-8.91607 c -0.20437,-0.61849 -0.76316,-1.05143 -1.41313,-1.09489 0,0 -1.30519,-0.086 -3.75147,-0.0964 z m 67.02381,-0.14863 c -1.57015,0.0229 -2.17178,2.05763 -0.8667,2.93086 h 0.002 c 0.094,0.0627 0.19431,0.11539 0.29936,0.15701 28.1114,11.42913 52.49382,26.53577 71.39482,47.30178 0.017,0.0185 0.0344,0.0367 0.0523,0.0545 l 0.002,0.002 c 0.32572,0.32532 0.77575,0.49465 1.23509,0.46474 l 4.58676,-0.29937 c 1.30123,-0.0856 1.95945,-1.60809 1.13048,-2.61467 0,0 -26.55828,-32.18549 -77.19566,-47.87093 -0.005,-0.002 -0.0108,-0.006 -0.0167,-0.009 -0.0256,-0.01 -0.0514,-0.0188 -0.0775,-0.0272 -0.0146,-0.005 -0.0293,-0.01 -0.0439,-0.0147 -0.1624,-0.0517 -0.33201,-0.0772 -0.50243,-0.0753 z m 80.04571,67.76767 c 0.91965,0.18528 2.65433,3.59809 4.24763,6.03548 0.13988,0.19805 0.28229,0.40903 0.4166,0.5757 0,0.0148 0.002,0.0252 0.0125,0.0398 0.17996,0.25689 0.35938,0.523 0.53173,0.73689 0.0868,0.50975 0.23176,0.8211 -0.96089,0.5757 -0.10075,-0.52398 -0.27215,-0.67618 -0.27215,-0.67618 0,0 -2.87942,-1.71164 -3.76198,-2.92669 -0.88331,-1.21494 -1.03766,-3.33913 -0.6071,-4.14505 0.10408,-0.18016 0.23709,-0.24545 0.39358,-0.21564 z"
     opacity="0.3"
     id="path4"
     style="stroke-width:1.07185" />
  <g
     fill="#ffffff"
     transform="matrix(1.0718494,0,0,1.0718494,11.481529,-40.775979)"
     id="g6">
    <path
       d="m 69.929,127.71 c -29.464,0.0337 -48.949,2.4206 -48.949,2.4206 0,0 107.73,-5.1706 194.03,29.769 2.9338,13.122 11.759,34.976 16.513,45.481 -13.602,9.4041 -28.94,18.249 -31.328,49.612 -2.3877,31.362 24.576,58.947 58.013,59.798 31.751,1.6913 53.688,1.9323 80.277,15.718 25.38,14.034 46.192,56.794 48.251,95.252 2.2244,-28.534 -8.4845,-89.895 -58.453,-108.53 69.826,12.219 75.982,63.973 75.984,63.994 0,0 5.2056,-59.754 -88.677,-73.531 -11.899,-1.7458 -26.947,-3.0899 -42.168,-3.1283 -75.246,0.99487 -77.989,-86.786 -21.288,-91.218 23.499,-1.9389 51.556,10.738 78.986,23.512 -0.10182,3.4068 0.0405,6.4339 2.2787,9.2314 2.2375,2.7966 10.832,5.8474 13.579,7.4233 2.7464,1.5764 11.545,7.1715 16.937,14.189 1.1692,-2.1872 10.933,-8.5432 10.933,-8.5432 0,0 -2.3391,0.0507 -7.781,-1.9832 -5.4426,-2.0339 -11.9,-8.1876 -12.053,-8.5432 -0.15246,-0.35625 -0.25501,-0.91601 1.0169,-1.1705 0.96572,-0.81305 -1.2209,-3.4575 -2.1873,-4.4232 -0.96572,-0.96636 -7.4247,-11.95 -7.5769,-12.204 -0.15245,-0.25447 -0.20376,-0.50931 -0.66105,-0.81465 -1.4244,-0.45805 -7.6799,0.66106 -7.6799,0.66106 0,0 -9.6211,-4.7252 -12.937,-14.913 0.0482,1.7844 -1.6497,3.734 0,7.8335 -5.0162,-2.122 -9.325,-5.7416 -12.723,-14.685 -2.0227,5.0868 0,8.3215 0,8.3215 0,0 -11.811,-3.3016 -13.701,-14.195 -2.0742,4.8902 0,7.8316 0,7.8316 0,0 -19.258,-10.048 -51.255,-10.194 -21.422,-1.965 -25.882,-39.65 -23.897,-45.994 0,0 -30.899,-16.285 -91.723,-23.479 -22.809,-2.6982 -44.081,-3.5238 -61.76,-3.5036 z m 71.276,32.521 c -9.2697,0.0699 -19.22,0.41577 -29.674,1.1588 -55.751,3.9628 -112.04,23.477 -112.04,23.477 0,0 115.18,-28.98 211.77,-11.971 h 0.002 l -2.512,-8.1057 c 0,0 -27.374,-4.862 -67.542,-4.5594 z m 68.293,17.263 c -9.75,-0.0412 -40.02,1.1848 -85.564,15.436 -57.124,17.874 -89.522,43.21 -89.522,43.21 0,0 85.141,-47.539 181.24,-50.24 l -2.7492,-8.3176 c 0,0 -1.1564,-0.0779 -3.4064,-0.0875 z m 62.559,-0.13932 c 26.38,10.723 49.34,24.931 67.165,44.514 l 0.002,0.002 4.2794,-0.27998 c 0,0 -24.518,-29.746 -71.447,-44.236 z m 72.712,57.183 5.2496,3.8672 c 0.65793,-1.1408 3.31,6.0651 4.9229,8.0668 0.0683,0.3997 -2.6812,3.6124 -3.6164,3.42 -0.0787,-0.41087 -4.3494,-1.6449 -4.3494,-1.6449 0,0 -4.853,-2.932 -5.5451,-3.8847 -0.6926,-0.9527 3.0007,-9.1925 3.3383,-9.8244 z"
       stroke="#ffffff"
       stroke-linejoin="round"
       stroke-width="2.9864"
       id="path5" />
    <path
       d="m 69.929,127.71 c -29.464,0.0337 -48.949,2.4206 -48.949,2.4206 0,0 107.73,-5.1706 194.03,29.769 2.9338,13.122 11.759,34.976 16.513,45.481 -13.602,9.4041 -28.94,18.249 -31.328,49.612 -2.3877,31.362 24.576,58.947 58.013,59.798 31.751,1.6913 53.688,1.9323 80.277,15.718 25.38,14.034 46.192,56.794 48.251,95.252 2.2244,-28.534 -8.4845,-89.895 -58.453,-108.53 69.826,12.219 75.982,63.973 75.984,63.994 0,0 5.2056,-59.754 -88.677,-73.531 -11.899,-1.7458 -26.947,-3.0899 -42.168,-3.1283 -75.246,0.99487 -77.989,-86.786 -21.288,-91.218 23.499,-1.9389 51.556,10.738 78.986,23.512 -0.10182,3.4068 0.0404,6.4339 2.2787,9.2314 2.2375,2.7966 10.832,5.8474 13.579,7.4233 2.7464,1.5764 11.545,7.1715 16.937,14.189 1.1692,-2.1872 10.933,-8.5432 10.933,-8.5432 0,0 -2.3391,0.0507 -7.781,-1.9832 -5.4426,-2.0339 -11.9,-8.1876 -12.053,-8.5432 -0.15246,-0.35625 -0.25501,-0.91601 1.0169,-1.1705 0.96572,-0.81305 -1.2209,-3.4575 -2.1873,-4.4232 -0.96572,-0.96636 -7.4247,-11.95 -7.5769,-12.204 -0.15245,-0.25447 -0.20376,-0.50931 -0.66105,-0.81465 -1.4244,-0.45805 -7.6799,0.66106 -7.6799,0.66106 0,0 -9.6211,-4.7252 -12.937,-14.913 0.0482,1.7844 -1.6497,3.734 0,7.8335 -5.0162,-2.122 -9.325,-5.7416 -12.723,-14.685 -2.0227,5.0868 0,8.3215 0,8.3215 0,0 -11.811,-3.3016 -13.701,-14.195 -2.0742,4.8902 0,7.8316 0,7.8316 0,0 -19.258,-10.048 -51.255,-10.194 -21.422,-1.965 -25.882,-39.65 -23.897,-45.994 0,0 -30.899,-16.285 -91.723,-23.479 -22.809,-2.6982 -44.081,-3.5238 -61.76,-3.5036 z m 71.276,32.521 c -9.2697,0.0699 -19.22,0.41577 -29.674,1.1588 -55.751,3.9628 -112.04,23.477 -112.04,23.477 0,0 115.18,-28.98 211.77,-11.971 h 0.002 l -2.512,-8.1057 c 0,0 -27.373,-4.5594 -67.542,-4.5594 z m 68.293,17.263 c -9.75,-0.0412 -40.02,1.1848 -85.564,15.436 -57.124,17.874 -89.522,43.21 -89.522,43.21 0,0 85.141,-47.539 181.24,-50.24 l -2.7492,-8.3176 c 0,0 -1.1564,-0.0779 -3.4064,-0.0875 z m 62.559,-0.13932 c 26.38,10.723 49.34,24.931 67.165,44.514 l 0.002,0.002 4.2794,-0.27998 c 0,0 -24.518,-29.746 -71.446,-44.236 z m 74.662,61.731 c 0.85796,0.17286 2.4779,3.3567 3.9644,5.6306 0.13054,0.18477 0.26356,0.38112 0.38886,0.53662 0.002,0.0138 0.003,0.0234 0.006,0.037 0.16796,0.23967 0.33693,0.4887 0.49774,0.68826 0.0812,0.47558 0.21641,0.76558 -0.89631,0.53663 -0.0936,-0.48886 -0.25471,-0.62995 -0.25471,-0.62995 0,0 -2.686,-1.5982 -3.5094,-2.7317 -0.82408,-1.1335 -0.96948,-3.1153 -0.56774,-3.8672 0.0978,-0.16967 0.2236,-0.23004 0.37137,-0.20027 z"
       id="path6" />
  </g>
</svg>
